<svg width="171" height="36" viewBox="0 0 171 36" fill="none" xmlns="http://www.w3.org/2000/svg">
<path fill-rule="evenodd" clip-rule="evenodd" d="M27.8333 18C27.8333 25.0877 22.0877 30.8333 15 30.8333C7.91234 30.8333 2.16666 25.0877 2.16666 18C2.16666 10.9123 7.91234 5.16666 15 5.16666C22.0877 5.16666 27.8333 10.9123 27.8333 18ZM30 18C30 26.2843 23.2843 33 15 33C6.71573 33 0 26.2843 0 18C0 9.71573 6.71573 3 15 3C23.2843 3 30 9.71573 30 18ZM23.2759 11.2759C23.2759 12.1329 22.5812 12.8276 21.7242 12.8276C20.8672 12.8276 20.1725 12.1329 20.1725 11.2759C20.1725 10.4189 20.8672 9.72418 21.7242 9.72418C22.5812 9.72418 23.2759 10.4189 23.2759 11.2759ZM10.4879 19.209C11.1556 21.7009 13.717 23.1797 16.2089 22.512C18.7008 21.8443 20.1796 19.2829 19.5119 16.791C18.8442 14.2991 16.2828 12.8203 13.7909 13.488C11.299 14.1557 9.82015 16.7171 10.4879 19.209ZM8.39503 19.7698C9.37244 23.4175 13.1219 25.5823 16.7696 24.6049C20.4174 23.6274 22.5821 19.878 21.6047 16.2302C20.6273 12.5825 16.8779 10.4177 13.2301 11.3952C9.58236 12.3726 7.41762 16.122 8.39503 19.7698Z" fill="url(#paint0_linear_103_2)"/>
<path d="M63.41 26.17C63.17 26.37 62.72 26.64 62.06 26.98C61.42 27.32 60.63 27.62 59.69 27.88C58.75 28.14 57.71 28.26 56.57 28.24C54.83 28.2 53.27 27.89 51.89 27.31C50.53 26.71 49.37 25.9 48.41 24.88C47.47 23.86 46.75 22.69 46.25 21.37C45.75 20.05 45.5 18.64 45.5 17.14C45.5 15.46 45.75 13.92 46.25 12.52C46.77 11.12 47.5 9.91 48.44 8.89C49.4 7.87 50.54 7.08 51.86 6.52C53.18 5.96 54.64 5.68 56.24 5.68C57.72 5.68 59.03 5.88 60.17 6.28C61.31 6.68 62.24 7.11 62.96 7.57L61.25 11.68C60.75 11.3 60.08 10.91 59.24 10.51C58.42 10.09 57.47 9.88 56.39 9.88C55.55 9.88 54.74 10.06 53.96 10.42C53.2 10.76 52.52 11.25 51.92 11.89C51.34 12.53 50.88 13.28 50.54 14.14C50.2 14.98 50.03 15.9 50.03 16.9C50.03 17.96 50.18 18.93 50.48 19.81C50.8 20.69 51.25 21.45 51.83 22.09C52.41 22.71 53.1 23.19 53.9 23.53C54.72 23.87 55.64 24.04 56.66 24.04C57.84 24.04 58.85 23.85 59.69 23.47C60.53 23.09 61.17 22.69 61.61 22.27L63.41 26.17ZM67.078 14.89H71.278V28H67.078V14.89ZM66.988 10.24C66.988 9.62 67.228 9.11 67.708 8.71C68.208 8.31 68.738 8.11 69.298 8.11C69.858 8.11 70.368 8.31 70.828 8.71C71.308 9.11 71.548 9.62 71.548 10.24C71.548 10.86 71.308 11.37 70.828 11.77C70.368 12.15 69.858 12.34 69.298 12.34C68.738 12.34 68.208 12.15 67.708 11.77C67.228 11.37 66.988 10.86 66.988 10.24ZM79.3834 14.89L79.7734 18.49L79.6834 17.95C80.0634 17.17 80.5834 16.51 81.2434 15.97C81.9034 15.41 82.5534 14.98 83.1934 14.68C83.8534 14.38 84.3534 14.23 84.6934 14.23L84.4834 18.43C83.5034 18.31 82.6634 18.47 81.9634 18.91C81.2634 19.35 80.7234 19.93 80.3434 20.65C79.9634 21.37 79.7734 22.11 79.7734 22.87V28H75.6034V14.89H79.3834ZM98.4521 26.83C97.8721 27.29 97.1421 27.66 96.2621 27.94C95.4021 28.22 94.5521 28.36 93.7121 28.36C92.2121 28.36 90.9021 28.09 89.7821 27.55C88.6821 26.99 87.8221 26.2 87.2021 25.18C86.6021 24.14 86.3021 22.89 86.3021 21.43C86.3021 19.97 86.6321 18.73 87.2921 17.71C87.9521 16.67 88.8121 15.88 89.8721 15.34C90.9521 14.8 92.0821 14.53 93.2621 14.53C94.4421 14.53 95.4621 14.69 96.3221 15.01C97.2021 15.33 97.9521 15.75 98.5721 16.27L96.5321 18.97C96.2521 18.75 95.8621 18.53 95.3621 18.31C94.8821 18.07 94.3121 17.95 93.6521 17.95C93.0721 17.95 92.5421 18.1 92.0621 18.4C91.5821 18.7 91.2021 19.11 90.9221 19.63C90.6421 20.15 90.5021 20.75 90.5021 21.43C90.5021 22.07 90.6521 22.66 90.9521 23.2C91.2521 23.74 91.6621 24.17 92.1821 24.49C92.7221 24.79 93.3521 24.94 94.0721 24.94C94.5321 24.94 94.9521 24.88 95.3321 24.76C95.7321 24.62 96.0721 24.43 96.3521 24.19L98.4521 26.83ZM101.678 4.33H105.878V28H101.678V4.33ZM116.653 28.36C115.053 28.36 113.693 28.06 112.573 27.46C111.473 26.86 110.633 26.03 110.053 24.97C109.473 23.91 109.183 22.69 109.183 21.31C109.183 19.99 109.523 18.8 110.203 17.74C110.883 16.68 111.793 15.84 112.933 15.22C114.073 14.58 115.343 14.26 116.743 14.26C118.623 14.26 120.163 14.81 121.363 15.91C122.583 16.99 123.373 18.56 123.733 20.62L113.533 23.86L112.603 21.58L119.983 19.09L119.113 19.48C118.953 18.96 118.663 18.51 118.243 18.13C117.843 17.73 117.233 17.53 116.413 17.53C115.793 17.53 115.243 17.68 114.763 17.98C114.303 18.26 113.943 18.67 113.683 19.21C113.443 19.73 113.323 20.35 113.323 21.07C113.323 21.89 113.473 22.58 113.773 23.14C114.073 23.68 114.483 24.09 115.003 24.37C115.523 24.65 116.103 24.79 116.743 24.79C117.203 24.79 117.643 24.71 118.063 24.55C118.503 24.39 118.933 24.18 119.353 23.92L121.213 27.04C120.513 27.44 119.753 27.76 118.933 28C118.133 28.24 117.373 28.36 116.653 28.36Z" fill="white"/>
<defs>
<linearGradient id="paint0_linear_103_2" x1="15" y1="3" x2="15" y2="33" gradientUnits="userSpaceOnUse">
<stop stop-color="#405DE6"/>
<stop offset="0.1" stop-color="#5B51D8"/>
<stop offset="0.2" stop-color="#833AB4"/>
<stop offset="0.3" stop-color="#C13584"/>
<stop offset="0.4" stop-color="#E1306C"/>
<stop offset="0.5" stop-color="#FD1D1D"/>
<stop offset="0.59" stop-color="#F56040"/>
<stop offset="0.7" stop-color="#F77737"/>
<stop offset="0.8" stop-color="#FCAF45"/>
<stop offset="0.9" stop-color="#FFDC80"/>
</linearGradient>
</defs>
</svg>
